<svg width="52" height="52" viewBox="0 0 52 52" fill="none" xmlns="http://www.w3.org/2000/svg">
<g clip-path="url(#clip0_3_36)">
<mask id="mask0_3_36" style="mask-type:luminance" maskUnits="userSpaceOnUse" x="0" y="0" width="52" height="52">
<path d="M44 0H8C3.58172 0 0 3.58172 0 8V44C0 48.4183 3.58172 52 8 52H44C48.4183 52 52 48.4183 52 44V8C52 3.58172 48.4183 0 44 0Z" fill="white"/>
</mask>
<g mask="url(#mask0_3_36)">
<path d="M44 0H8C3.58172 0 0 3.58172 0 8V44C0 48.4183 3.58172 52 8 52H44C48.4183 52 52 48.4183 52 44V8C52 3.58172 48.4183 0 44 0Z" fill="#141414"/>
<path d="M5.25 55.034V-3M13.25 55.034V-3M21.25 55.034V-3M29.25 55.034V-3M37.25 55.034V-3M45.25 55.034V-3M-3.25 5.517H54.785M-3.25 13.517H54.785M-3.25 21.517H54.785M-3.25 29.517H54.785M-3.25 37.517H54.785M-3.25 45.517H54.785" stroke="#DCFC36" stroke-opacity="0.2"/>
<path d="M0 0H52V52H0V0Z" fill="url(#paint0_radial_3_36)"/>
</g>
<path d="M44 0.5H8C3.85786 0.5 0.5 3.85786 0.5 8V44C0.5 48.1421 3.85786 51.5 8 51.5H44C48.1421 51.5 51.5 48.1421 51.5 44V8C51.5 3.85786 48.1421 0.5 44 0.5Z" stroke="#141414"/>
<g clip-path="url(#clip1_3_36)">
<ellipse cx="26" cy="26.5" rx="12" ry="12.5" fill="#141414"/>
<path fill-rule="evenodd" clip-rule="evenodd" d="M25.9642 14C19.3483 14 14 19.5 14 26.3042C14 31.7432 17.4269 36.3472 22.1808 37.9767C22.7752 38.0992 22.9929 37.712 22.9929 37.3862C22.9929 37.101 22.9733 36.1232 22.9733 35.1045C19.6451 35.838 18.9521 33.6378 18.9521 33.6378C18.4172 32.2118 17.6247 31.8452 17.6247 31.8452C16.5354 31.0915 17.7041 31.0915 17.7041 31.0915C18.9124 31.173 19.5464 32.3545 19.5464 32.3545C20.6159 34.2285 22.3393 33.699 23.0326 33.373C23.1315 32.5785 23.4487 32.0285 23.7854 31.723C21.1309 31.4377 18.3381 30.3785 18.3381 25.6523C18.3381 24.3078 18.8132 23.2078 19.566 22.3523C19.4473 22.0468 19.0312 20.7835 19.6851 19.0928C19.6851 19.0928 20.6953 18.7668 22.9731 20.3558C23.9483 20.0864 24.954 19.9494 25.9642 19.9482C26.9744 19.9482 28.0042 20.091 28.9552 20.3558C31.2332 18.7668 32.2434 19.0928 32.2434 19.0928C32.8973 20.7835 32.481 22.0468 32.3622 22.3523C33.1349 23.2078 33.5904 24.3078 33.5904 25.6523C33.5904 30.3785 30.7976 31.4172 28.1233 31.723C28.5592 32.11 28.9353 32.8432 28.9353 34.0045C28.9353 35.6545 28.9158 36.9787 28.9158 37.386C28.9158 37.712 29.1337 38.0992 29.7278 37.977C34.4818 36.347 37.9087 31.7432 37.9087 26.3042C37.9282 19.5 32.5603 14 25.9642 14Z" fill="#DCFC36"/>
</g>
</g>
<defs>
<radialGradient id="paint0_radial_3_36" cx="0" cy="0" r="1" gradientUnits="userSpaceOnUse" gradientTransform="translate(26 26) rotate(90) scale(26)">
<stop stop-color="#0A0A0B" stop-opacity="0"/>
<stop offset="0.949" stop-color="#0A0A0B"/>
</radialGradient>
<clipPath id="clip0_3_36">
<rect width="52" height="52" fill="white"/>
</clipPath>
<clipPath id="clip1_3_36">
<rect width="24" height="24" fill="white" transform="translate(14 14)"/>
</clipPath>
</defs>
</svg>
